<mxfile host="Electron" agent="Mozilla/5.0 (Windows NT 10.0; Win64; x64) AppleWebKit/537.36 (KHTML, like Gecko) draw.io/26.2.2 Chrome/134.0.6998.178 Electron/35.1.2 Safari/537.36" version="26.2.2">
  <diagram name="Trang-1" id="d_lrkH4-vdAlnMZ1kf16">
    <mxGraphModel dx="2856" dy="1682" grid="1" gridSize="10" guides="1" tooltips="1" connect="1" arrows="1" fold="1" page="1" pageScale="1" pageWidth="827" pageHeight="1169" math="0" shadow="0">
      <root>
        <mxCell id="0" />
        <mxCell id="1" parent="0" />
        <mxCell id="kXjG0Q7y1UOLb-YYbGv2-1" value="ad customer request resident status change" style="swimlane;childLayout=stackLayout;resizeParent=1;resizeParentMax=0;startSize=20;html=1;" parent="1" vertex="1">
          <mxGeometry x="230.00000000000045" y="100" width="610" height="530" as="geometry" />
        </mxCell>
        <mxCell id="kXjG0Q7y1UOLb-YYbGv2-2" value="Customer" style="swimlane;startSize=20;html=1;" parent="kXjG0Q7y1UOLb-YYbGv2-1" vertex="1">
          <mxGeometry y="20" width="220" height="510" as="geometry" />
        </mxCell>
        <mxCell id="kXjG0Q7y1UOLb-YYbGv2-5" value="" style="ellipse;html=1;shape=startState;fillColor=#000000;strokeColor=#ff0000;" parent="kXjG0Q7y1UOLb-YYbGv2-2" vertex="1">
          <mxGeometry x="89.99999999999955" y="40" width="30" height="30" as="geometry" />
        </mxCell>
        <mxCell id="kXjG0Q7y1UOLb-YYbGv2-6" value="" style="edgeStyle=orthogonalEdgeStyle;html=1;verticalAlign=bottom;endArrow=open;endSize=8;strokeColor=#ff0000;rounded=0;entryX=0.506;entryY=-0.074;entryDx=0;entryDy=0;entryPerimeter=0;" parent="kXjG0Q7y1UOLb-YYbGv2-2" source="kXjG0Q7y1UOLb-YYbGv2-5" target="kXjG0Q7y1UOLb-YYbGv2-7" edge="1">
          <mxGeometry relative="1" as="geometry">
            <mxPoint x="104.99999999999955" y="100" as="targetPoint" />
          </mxGeometry>
        </mxCell>
        <mxCell id="kXjG0Q7y1UOLb-YYbGv2-7" value="Change status" style="rounded=1;whiteSpace=wrap;html=1;arcSize=40;fontColor=#000000;fillColor=#ffffc0;strokeColor=#ff0000;" parent="kXjG0Q7y1UOLb-YYbGv2-2" vertex="1">
          <mxGeometry x="43.999999999999545" y="110" width="120" height="40" as="geometry" />
        </mxCell>
        <mxCell id="kXjG0Q7y1UOLb-YYbGv2-16" style="edgeStyle=orthogonalEdgeStyle;rounded=0;orthogonalLoop=1;jettySize=auto;html=1;exitX=0.5;exitY=1;exitDx=0;exitDy=0;entryX=0.5;entryY=0;entryDx=0;entryDy=0;" parent="kXjG0Q7y1UOLb-YYbGv2-2" source="kXjG0Q7y1UOLb-YYbGv2-9" target="kXjG0Q7y1UOLb-YYbGv2-13" edge="1">
          <mxGeometry relative="1" as="geometry" />
        </mxCell>
        <mxCell id="kXjG0Q7y1UOLb-YYbGv2-9" value="abc" style="rounded=1;whiteSpace=wrap;html=1;arcSize=40;fontColor=#000000;fillColor=#ffffc0;strokeColor=#ff0000;" parent="kXjG0Q7y1UOLb-YYbGv2-2" vertex="1">
          <mxGeometry x="43.999999999999545" y="190" width="120" height="40" as="geometry" />
        </mxCell>
        <mxCell id="kXjG0Q7y1UOLb-YYbGv2-13" value="Condition" style="rhombus;whiteSpace=wrap;html=1;fontColor=#000000;fillColor=#ffffc0;strokeColor=#ff0000;" parent="kXjG0Q7y1UOLb-YYbGv2-2" vertex="1">
          <mxGeometry x="63.999999999999545" y="290" width="80" height="40" as="geometry" />
        </mxCell>
        <mxCell id="kXjG0Q7y1UOLb-YYbGv2-14" value="no" style="edgeStyle=orthogonalEdgeStyle;html=1;align=left;verticalAlign=bottom;endArrow=open;endSize=8;strokeColor=#ff0000;rounded=0;" parent="kXjG0Q7y1UOLb-YYbGv2-2" source="kXjG0Q7y1UOLb-YYbGv2-13" edge="1">
          <mxGeometry x="-1" relative="1" as="geometry">
            <mxPoint x="239.99999999999955" y="310" as="targetPoint" />
          </mxGeometry>
        </mxCell>
        <mxCell id="kXjG0Q7y1UOLb-YYbGv2-15" value="yes" style="edgeStyle=orthogonalEdgeStyle;html=1;align=left;verticalAlign=top;endArrow=open;endSize=8;strokeColor=#ff0000;rounded=0;" parent="kXjG0Q7y1UOLb-YYbGv2-2" source="kXjG0Q7y1UOLb-YYbGv2-13" edge="1">
          <mxGeometry x="-1" relative="1" as="geometry">
            <mxPoint x="103.99999999999955" y="390" as="targetPoint" />
          </mxGeometry>
        </mxCell>
        <mxCell id="kXjG0Q7y1UOLb-YYbGv2-20" value="cc tting" style="rounded=1;whiteSpace=wrap;html=1;arcSize=40;fontColor=#000000;fillColor=#ffffc0;strokeColor=#ff0000;" parent="kXjG0Q7y1UOLb-YYbGv2-2" vertex="1">
          <mxGeometry x="44.999999999999545" y="390" width="120" height="40" as="geometry" />
        </mxCell>
        <mxCell id="kXjG0Q7y1UOLb-YYbGv2-3" value="System" style="swimlane;startSize=20;html=1;" parent="kXjG0Q7y1UOLb-YYbGv2-1" vertex="1">
          <mxGeometry x="220" y="20" width="390" height="510" as="geometry" />
        </mxCell>
        <mxCell id="kXjG0Q7y1UOLb-YYbGv2-10" value="Hiển thị thông tin đăng nhập, đăng ký" style="rounded=1;whiteSpace=wrap;html=1;arcSize=40;fontColor=#000000;fillColor=#ffffc0;strokeColor=#ff0000;" parent="kXjG0Q7y1UOLb-YYbGv2-3" vertex="1">
          <mxGeometry x="69.99999999999955" y="110" width="120" height="40" as="geometry" />
        </mxCell>
        <mxCell id="kXjG0Q7y1UOLb-YYbGv2-23" style="rounded=0;orthogonalLoop=1;jettySize=auto;html=1;exitX=1;exitY=0;exitDx=0;exitDy=5;exitPerimeter=0;entryX=0;entryY=0.5;entryDx=0;entryDy=0;" parent="kXjG0Q7y1UOLb-YYbGv2-3" source="kXjG0Q7y1UOLb-YYbGv2-21" target="kXjG0Q7y1UOLb-YYbGv2-22" edge="1">
          <mxGeometry relative="1" as="geometry" />
        </mxCell>
        <mxCell id="kXjG0Q7y1UOLb-YYbGv2-21" value="" style="html=1;points=[[0,0,0,0,5],[0,1,0,0,-5],[1,0,0,0,5],[1,1,0,0,-5]];perimeter=orthogonalPerimeter;outlineConnect=0;targetShapes=umlLifeline;portConstraint=eastwest;newEdgeStyle={&quot;curved&quot;:0,&quot;rounded&quot;:0};" parent="kXjG0Q7y1UOLb-YYbGv2-3" vertex="1">
          <mxGeometry x="19.999999999999545" y="280" width="10" height="80" as="geometry" />
        </mxCell>
        <mxCell id="kXjG0Q7y1UOLb-YYbGv2-25" style="edgeStyle=orthogonalEdgeStyle;rounded=0;orthogonalLoop=1;jettySize=auto;html=1;exitX=0.5;exitY=1;exitDx=0;exitDy=0;entryX=0.5;entryY=0;entryDx=0;entryDy=0;" parent="kXjG0Q7y1UOLb-YYbGv2-3" source="kXjG0Q7y1UOLb-YYbGv2-22" target="kXjG0Q7y1UOLb-YYbGv2-24" edge="1">
          <mxGeometry relative="1" as="geometry" />
        </mxCell>
        <mxCell id="kXjG0Q7y1UOLb-YYbGv2-22" value="Hệ thống ghi nhận dữ liệu" style="rounded=1;whiteSpace=wrap;html=1;arcSize=40;fontColor=#000000;fillColor=#ffffc0;strokeColor=#ff0000;" parent="kXjG0Q7y1UOLb-YYbGv2-3" vertex="1">
          <mxGeometry x="69.99999999999955" y="240" width="120" height="40" as="geometry" />
        </mxCell>
        <mxCell id="kXjG0Q7y1UOLb-YYbGv2-29" style="edgeStyle=orthogonalEdgeStyle;rounded=0;orthogonalLoop=1;jettySize=auto;html=1;exitX=1;exitY=0.5;exitDx=0;exitDy=0;entryX=0;entryY=0.5;entryDx=0;entryDy=0;" parent="kXjG0Q7y1UOLb-YYbGv2-3" source="kXjG0Q7y1UOLb-YYbGv2-24" target="kXjG0Q7y1UOLb-YYbGv2-28" edge="1">
          <mxGeometry relative="1" as="geometry" />
        </mxCell>
        <mxCell id="kXjG0Q7y1UOLb-YYbGv2-24" value="Validate" style="rhombus;whiteSpace=wrap;html=1;fontColor=#000000;fillColor=#ffffc0;strokeColor=#ff0000;" parent="kXjG0Q7y1UOLb-YYbGv2-3" vertex="1">
          <mxGeometry x="89.99999999999955" y="310" width="80" height="40" as="geometry" />
        </mxCell>
        <mxCell id="kXjG0Q7y1UOLb-YYbGv2-26" value="" style="ellipse;html=1;shape=endState;fillColor=#000000;strokeColor=#ff0000;" parent="kXjG0Q7y1UOLb-YYbGv2-3" vertex="1">
          <mxGeometry x="114.99999999999955" y="390" width="30" height="30" as="geometry" />
        </mxCell>
        <mxCell id="kXjG0Q7y1UOLb-YYbGv2-27" style="edgeStyle=orthogonalEdgeStyle;rounded=0;orthogonalLoop=1;jettySize=auto;html=1;exitX=0.5;exitY=1;exitDx=0;exitDy=0;" parent="kXjG0Q7y1UOLb-YYbGv2-3" source="kXjG0Q7y1UOLb-YYbGv2-24" edge="1">
          <mxGeometry relative="1" as="geometry">
            <mxPoint x="129.99999999999955" y="390" as="targetPoint" />
          </mxGeometry>
        </mxCell>
        <mxCell id="kXjG0Q7y1UOLb-YYbGv2-28" value="send" style="rounded=1;whiteSpace=wrap;html=1;arcSize=40;fontColor=#000000;fillColor=#ffffc0;strokeColor=#ff0000;" parent="kXjG0Q7y1UOLb-YYbGv2-3" vertex="1">
          <mxGeometry x="229.99999999999955" y="310" width="120" height="40" as="geometry" />
        </mxCell>
        <mxCell id="kXjG0Q7y1UOLb-YYbGv2-11" style="edgeStyle=orthogonalEdgeStyle;rounded=0;orthogonalLoop=1;jettySize=auto;html=1;exitX=1;exitY=0.5;exitDx=0;exitDy=0;" parent="kXjG0Q7y1UOLb-YYbGv2-1" source="kXjG0Q7y1UOLb-YYbGv2-7" target="kXjG0Q7y1UOLb-YYbGv2-10" edge="1">
          <mxGeometry relative="1" as="geometry" />
        </mxCell>
        <mxCell id="kXjG0Q7y1UOLb-YYbGv2-12" style="edgeStyle=orthogonalEdgeStyle;rounded=0;orthogonalLoop=1;jettySize=auto;html=1;exitX=0.5;exitY=1;exitDx=0;exitDy=0;" parent="kXjG0Q7y1UOLb-YYbGv2-1" source="kXjG0Q7y1UOLb-YYbGv2-10" target="kXjG0Q7y1UOLb-YYbGv2-9" edge="1">
          <mxGeometry relative="1" as="geometry" />
        </mxCell>
        <mxCell id="kXjG0Q7y1UOLb-YYbGv2-30" value="ad customer request resident status change" style="swimlane;childLayout=stackLayout;resizeParent=1;resizeParentMax=0;startSize=20;html=1;" parent="1" vertex="1">
          <mxGeometry x="270.00000000000045" y="760" width="610" height="740" as="geometry" />
        </mxCell>
        <mxCell id="kXjG0Q7y1UOLb-YYbGv2-31" value="Manager" style="swimlane;startSize=20;html=1;" parent="kXjG0Q7y1UOLb-YYbGv2-30" vertex="1">
          <mxGeometry y="20" width="220" height="720" as="geometry" />
        </mxCell>
        <mxCell id="kXjG0Q7y1UOLb-YYbGv2-32" value="" style="ellipse;html=1;shape=startState;fillColor=#000000;strokeColor=#ff0000;" parent="kXjG0Q7y1UOLb-YYbGv2-31" vertex="1">
          <mxGeometry x="89.99999999999955" y="40" width="30" height="30" as="geometry" />
        </mxCell>
        <mxCell id="kXjG0Q7y1UOLb-YYbGv2-33" value="" style="edgeStyle=orthogonalEdgeStyle;html=1;verticalAlign=bottom;endArrow=open;endSize=8;strokeColor=#ff0000;rounded=0;entryX=0.506;entryY=-0.074;entryDx=0;entryDy=0;entryPerimeter=0;" parent="kXjG0Q7y1UOLb-YYbGv2-31" source="kXjG0Q7y1UOLb-YYbGv2-32" target="kXjG0Q7y1UOLb-YYbGv2-34" edge="1">
          <mxGeometry relative="1" as="geometry">
            <mxPoint x="104.99999999999955" y="100" as="targetPoint" />
          </mxGeometry>
        </mxCell>
        <mxCell id="kXjG0Q7y1UOLb-YYbGv2-54" style="edgeStyle=orthogonalEdgeStyle;rounded=0;orthogonalLoop=1;jettySize=auto;html=1;exitX=0.5;exitY=1;exitDx=0;exitDy=0;entryX=0.5;entryY=0;entryDx=0;entryDy=0;" parent="kXjG0Q7y1UOLb-YYbGv2-31" source="kXjG0Q7y1UOLb-YYbGv2-34" target="kXjG0Q7y1UOLb-YYbGv2-36" edge="1">
          <mxGeometry relative="1" as="geometry" />
        </mxCell>
        <mxCell id="kXjG0Q7y1UOLb-YYbGv2-34" value="Tiếp nhận yêu cầu" style="rounded=1;whiteSpace=wrap;html=1;arcSize=40;fontColor=#000000;fillColor=#ffffc0;strokeColor=#ff0000;" parent="kXjG0Q7y1UOLb-YYbGv2-31" vertex="1">
          <mxGeometry x="43.999999999999545" y="110" width="120" height="40" as="geometry" />
        </mxCell>
        <mxCell id="kXjG0Q7y1UOLb-YYbGv2-36" value="Mở xem xét yêu cầu" style="rounded=1;whiteSpace=wrap;html=1;arcSize=40;fontColor=#000000;fillColor=#ffffc0;strokeColor=#ff0000;" parent="kXjG0Q7y1UOLb-YYbGv2-31" vertex="1">
          <mxGeometry x="43.999999999999545" y="180" width="120" height="40" as="geometry" />
        </mxCell>
        <mxCell id="kXjG0Q7y1UOLb-YYbGv2-58" style="edgeStyle=orthogonalEdgeStyle;rounded=0;orthogonalLoop=1;jettySize=auto;html=1;exitX=0.5;exitY=1;exitDx=0;exitDy=0;entryX=0.5;entryY=0;entryDx=0;entryDy=0;" parent="kXjG0Q7y1UOLb-YYbGv2-31" source="kXjG0Q7y1UOLb-YYbGv2-56" target="kXjG0Q7y1UOLb-YYbGv2-37" edge="1">
          <mxGeometry relative="1" as="geometry" />
        </mxCell>
        <mxCell id="kXjG0Q7y1UOLb-YYbGv2-56" value="Xác thực thông tin" style="rounded=1;whiteSpace=wrap;html=1;arcSize=40;fontColor=#000000;fillColor=#ffffc0;strokeColor=#ff0000;" parent="kXjG0Q7y1UOLb-YYbGv2-31" vertex="1">
          <mxGeometry x="44.999999999999545" y="260" width="120" height="40" as="geometry" />
        </mxCell>
        <mxCell id="kXjG0Q7y1UOLb-YYbGv2-37" value="Condition" style="rhombus;whiteSpace=wrap;html=1;fontColor=#000000;fillColor=#ffffc0;strokeColor=#ff0000;" parent="kXjG0Q7y1UOLb-YYbGv2-31" vertex="1">
          <mxGeometry x="63.999999999999545" y="370" width="80" height="40" as="geometry" />
        </mxCell>
        <mxCell id="kXjG0Q7y1UOLb-YYbGv2-40" value="nhập lí do" style="rounded=1;whiteSpace=wrap;html=1;arcSize=40;fontColor=#000000;fillColor=#ffffc0;strokeColor=#ff0000;" parent="kXjG0Q7y1UOLb-YYbGv2-31" vertex="1">
          <mxGeometry x="43.999999999999545" y="550" width="120" height="40" as="geometry" />
        </mxCell>
        <mxCell id="kXjG0Q7y1UOLb-YYbGv2-65" style="edgeStyle=orthogonalEdgeStyle;rounded=0;orthogonalLoop=1;jettySize=auto;html=1;exitX=0.5;exitY=1;exitDx=0;exitDy=0;entryX=0.5;entryY=0;entryDx=0;entryDy=0;" parent="kXjG0Q7y1UOLb-YYbGv2-31" source="kXjG0Q7y1UOLb-YYbGv2-37" target="kXjG0Q7y1UOLb-YYbGv2-40" edge="1">
          <mxGeometry relative="1" as="geometry" />
        </mxCell>
        <mxCell id="kXjG0Q7y1UOLb-YYbGv2-41" value="System" style="swimlane;startSize=20;html=1;" parent="kXjG0Q7y1UOLb-YYbGv2-30" vertex="1">
          <mxGeometry x="220" y="20" width="390" height="720" as="geometry" />
        </mxCell>
        <mxCell id="kXjG0Q7y1UOLb-YYbGv2-42" value="Hiển thị chi tiết yêu cầu" style="rounded=1;whiteSpace=wrap;html=1;arcSize=40;fontColor=#000000;fillColor=#ffffc0;strokeColor=#ff0000;" parent="kXjG0Q7y1UOLb-YYbGv2-41" vertex="1">
          <mxGeometry x="69.99999999999955" y="180" width="120" height="40" as="geometry" />
        </mxCell>
        <mxCell id="kXjG0Q7y1UOLb-YYbGv2-60" style="edgeStyle=orthogonalEdgeStyle;rounded=0;orthogonalLoop=1;jettySize=auto;html=1;exitX=0.5;exitY=1;exitDx=0;exitDy=0;entryX=0.5;entryY=0;entryDx=0;entryDy=0;" parent="kXjG0Q7y1UOLb-YYbGv2-41" source="kXjG0Q7y1UOLb-YYbGv2-48" target="kXjG0Q7y1UOLb-YYbGv2-51" edge="1">
          <mxGeometry relative="1" as="geometry" />
        </mxCell>
        <mxCell id="kXjG0Q7y1UOLb-YYbGv2-62" style="edgeStyle=orthogonalEdgeStyle;rounded=0;orthogonalLoop=1;jettySize=auto;html=1;exitX=1;exitY=0.5;exitDx=0;exitDy=0;entryX=0.5;entryY=0;entryDx=0;entryDy=0;" parent="kXjG0Q7y1UOLb-YYbGv2-41" source="kXjG0Q7y1UOLb-YYbGv2-48" target="kXjG0Q7y1UOLb-YYbGv2-61" edge="1">
          <mxGeometry relative="1" as="geometry" />
        </mxCell>
        <mxCell id="kXjG0Q7y1UOLb-YYbGv2-48" value="Validate" style="rhombus;whiteSpace=wrap;html=1;fontColor=#000000;fillColor=#ffffc0;strokeColor=#ff0000;" parent="kXjG0Q7y1UOLb-YYbGv2-41" vertex="1">
          <mxGeometry x="89.99999999999955" y="370" width="80" height="40" as="geometry" />
        </mxCell>
        <mxCell id="kXjG0Q7y1UOLb-YYbGv2-63" style="edgeStyle=orthogonalEdgeStyle;rounded=0;orthogonalLoop=1;jettySize=auto;html=1;exitX=0.5;exitY=1;exitDx=0;exitDy=0;entryX=0.25;entryY=0;entryDx=0;entryDy=0;" parent="kXjG0Q7y1UOLb-YYbGv2-41" source="kXjG0Q7y1UOLb-YYbGv2-51" target="kXjG0Q7y1UOLb-YYbGv2-61" edge="1">
          <mxGeometry relative="1" as="geometry">
            <mxPoint x="179.99999999999955" y="550" as="targetPoint" />
            <Array as="points">
              <mxPoint x="130" y="530" />
              <mxPoint x="220" y="530" />
            </Array>
          </mxGeometry>
        </mxCell>
        <mxCell id="kXjG0Q7y1UOLb-YYbGv2-51" value="update" style="rounded=1;whiteSpace=wrap;html=1;arcSize=40;fontColor=#000000;fillColor=#ffffc0;strokeColor=#ff0000;" parent="kXjG0Q7y1UOLb-YYbGv2-41" vertex="1">
          <mxGeometry x="69.99999999999955" y="470" width="120" height="40" as="geometry" />
        </mxCell>
        <mxCell id="kXjG0Q7y1UOLb-YYbGv2-64" style="edgeStyle=orthogonalEdgeStyle;rounded=0;orthogonalLoop=1;jettySize=auto;html=1;exitX=0.5;exitY=1;exitDx=0;exitDy=0;entryX=0.5;entryY=0;entryDx=0;entryDy=0;" parent="kXjG0Q7y1UOLb-YYbGv2-41" source="kXjG0Q7y1UOLb-YYbGv2-61" target="kXjG0Q7y1UOLb-YYbGv2-49" edge="1">
          <mxGeometry relative="1" as="geometry" />
        </mxCell>
        <mxCell id="kXjG0Q7y1UOLb-YYbGv2-61" value="modìy" style="rounded=1;whiteSpace=wrap;html=1;arcSize=40;fontColor=#000000;fillColor=#ffffc0;strokeColor=#ff0000;" parent="kXjG0Q7y1UOLb-YYbGv2-41" vertex="1">
          <mxGeometry x="189.99999999999955" y="540" width="120" height="40" as="geometry" />
        </mxCell>
        <mxCell id="kXjG0Q7y1UOLb-YYbGv2-49" value="" style="ellipse;html=1;shape=endState;fillColor=#000000;strokeColor=#ff0000;" parent="kXjG0Q7y1UOLb-YYbGv2-41" vertex="1">
          <mxGeometry x="234.99999999999955" y="620" width="30" height="30" as="geometry" />
        </mxCell>
        <mxCell id="kXjG0Q7y1UOLb-YYbGv2-66" value="send" style="rounded=1;whiteSpace=wrap;html=1;arcSize=40;fontColor=#000000;fillColor=#ffffc0;strokeColor=#ff0000;" parent="kXjG0Q7y1UOLb-YYbGv2-41" vertex="1">
          <mxGeometry x="14.999999999999545" y="550" width="120" height="40" as="geometry" />
        </mxCell>
        <mxCell id="kXjG0Q7y1UOLb-YYbGv2-68" value="" style="ellipse;html=1;shape=endState;fillColor=#000000;strokeColor=#ff0000;" parent="kXjG0Q7y1UOLb-YYbGv2-41" vertex="1">
          <mxGeometry x="59.999999999999545" y="620" width="30" height="30" as="geometry" />
        </mxCell>
        <mxCell id="kXjG0Q7y1UOLb-YYbGv2-55" style="edgeStyle=orthogonalEdgeStyle;rounded=0;orthogonalLoop=1;jettySize=auto;html=1;exitX=1;exitY=0.5;exitDx=0;exitDy=0;entryX=0;entryY=0.5;entryDx=0;entryDy=0;" parent="kXjG0Q7y1UOLb-YYbGv2-30" source="kXjG0Q7y1UOLb-YYbGv2-36" target="kXjG0Q7y1UOLb-YYbGv2-42" edge="1">
          <mxGeometry relative="1" as="geometry" />
        </mxCell>
        <mxCell id="kXjG0Q7y1UOLb-YYbGv2-57" style="edgeStyle=orthogonalEdgeStyle;rounded=0;orthogonalLoop=1;jettySize=auto;html=1;exitX=0.5;exitY=1;exitDx=0;exitDy=0;" parent="kXjG0Q7y1UOLb-YYbGv2-30" source="kXjG0Q7y1UOLb-YYbGv2-42" target="kXjG0Q7y1UOLb-YYbGv2-56" edge="1">
          <mxGeometry relative="1" as="geometry" />
        </mxCell>
        <mxCell id="kXjG0Q7y1UOLb-YYbGv2-59" style="edgeStyle=orthogonalEdgeStyle;rounded=0;orthogonalLoop=1;jettySize=auto;html=1;exitX=1;exitY=0.5;exitDx=0;exitDy=0;entryX=0;entryY=0.5;entryDx=0;entryDy=0;" parent="kXjG0Q7y1UOLb-YYbGv2-30" source="kXjG0Q7y1UOLb-YYbGv2-37" target="kXjG0Q7y1UOLb-YYbGv2-48" edge="1">
          <mxGeometry relative="1" as="geometry" />
        </mxCell>
        <mxCell id="kXjG0Q7y1UOLb-YYbGv2-67" style="edgeStyle=orthogonalEdgeStyle;rounded=0;orthogonalLoop=1;jettySize=auto;html=1;exitX=1;exitY=0.5;exitDx=0;exitDy=0;" parent="kXjG0Q7y1UOLb-YYbGv2-30" source="kXjG0Q7y1UOLb-YYbGv2-40" target="kXjG0Q7y1UOLb-YYbGv2-66" edge="1">
          <mxGeometry relative="1" as="geometry" />
        </mxCell>
        <mxCell id="kXjG0Q7y1UOLb-YYbGv2-70" value="ad customer request resident status change" style="swimlane;childLayout=stackLayout;resizeParent=1;resizeParentMax=0;startSize=20;html=1;" parent="1" vertex="1">
          <mxGeometry x="1020.0000000000005" y="390" width="1000" height="940" as="geometry" />
        </mxCell>
        <mxCell id="kXjG0Q7y1UOLb-YYbGv2-71" value="Customer" style="swimlane;startSize=20;html=1;" parent="kXjG0Q7y1UOLb-YYbGv2-70" vertex="1">
          <mxGeometry y="20" width="220" height="920" as="geometry" />
        </mxCell>
        <mxCell id="kXjG0Q7y1UOLb-YYbGv2-72" value="" style="ellipse;html=1;shape=startState;fillColor=#000000;strokeColor=#ff0000;" parent="kXjG0Q7y1UOLb-YYbGv2-71" vertex="1">
          <mxGeometry x="89.99999999999955" y="40" width="30" height="30" as="geometry" />
        </mxCell>
        <mxCell id="kXjG0Q7y1UOLb-YYbGv2-73" value="" style="edgeStyle=orthogonalEdgeStyle;html=1;verticalAlign=bottom;endArrow=open;endSize=8;strokeColor=#ff0000;rounded=0;entryX=0.506;entryY=-0.074;entryDx=0;entryDy=0;entryPerimeter=0;" parent="kXjG0Q7y1UOLb-YYbGv2-71" source="kXjG0Q7y1UOLb-YYbGv2-72" target="kXjG0Q7y1UOLb-YYbGv2-75" edge="1">
          <mxGeometry relative="1" as="geometry">
            <mxPoint x="104.99999999999955" y="100" as="targetPoint" />
          </mxGeometry>
        </mxCell>
        <mxCell id="kXjG0Q7y1UOLb-YYbGv2-75" value="view and select" style="rounded=1;whiteSpace=wrap;html=1;arcSize=40;fontColor=#000000;fillColor=#ffffc0;strokeColor=#ff0000;" parent="kXjG0Q7y1UOLb-YYbGv2-71" vertex="1">
          <mxGeometry x="43.999999999999545" y="110" width="120" height="40" as="geometry" />
        </mxCell>
        <mxCell id="kXjG0Q7y1UOLb-YYbGv2-76" value="choose room" style="rounded=1;whiteSpace=wrap;html=1;arcSize=40;fontColor=#000000;fillColor=#ffffc0;strokeColor=#ff0000;" parent="kXjG0Q7y1UOLb-YYbGv2-71" vertex="1">
          <mxGeometry x="43.999999999999545" y="189" width="120" height="40" as="geometry" />
        </mxCell>
        <mxCell id="kXjG0Q7y1UOLb-YYbGv2-78" value="send booking request" style="rounded=1;whiteSpace=wrap;html=1;arcSize=40;fontColor=#000000;fillColor=#ffffc0;strokeColor=#ff0000;" parent="kXjG0Q7y1UOLb-YYbGv2-71" vertex="1">
          <mxGeometry x="44.999999999999545" y="269" width="120" height="40" as="geometry" />
        </mxCell>
        <mxCell id="kXjG0Q7y1UOLb-YYbGv2-118" style="edgeStyle=orthogonalEdgeStyle;rounded=0;orthogonalLoop=1;jettySize=auto;html=1;exitX=0.5;exitY=1;exitDx=0;exitDy=0;entryX=0.5;entryY=0;entryDx=0;entryDy=0;" parent="kXjG0Q7y1UOLb-YYbGv2-71" source="kXjG0Q7y1UOLb-YYbGv2-80" target="kXjG0Q7y1UOLb-YYbGv2-92" edge="1">
          <mxGeometry relative="1" as="geometry" />
        </mxCell>
        <mxCell id="kXjG0Q7y1UOLb-YYbGv2-80" value="nhập thông tin" style="rounded=1;whiteSpace=wrap;html=1;arcSize=40;fontColor=#000000;fillColor=#ffffc0;strokeColor=#ff0000;" parent="kXjG0Q7y1UOLb-YYbGv2-71" vertex="1">
          <mxGeometry x="46.999999999999545" y="350" width="120" height="40" as="geometry" />
        </mxCell>
        <mxCell id="kXjG0Q7y1UOLb-YYbGv2-92" value="ấn xác nhận" style="rounded=1;whiteSpace=wrap;html=1;arcSize=40;fontColor=#000000;fillColor=#ffffc0;strokeColor=#ff0000;" parent="kXjG0Q7y1UOLb-YYbGv2-71" vertex="1">
          <mxGeometry x="45.999999999999545" y="430" width="120" height="40" as="geometry" />
        </mxCell>
        <mxCell id="kXjG0Q7y1UOLb-YYbGv2-134" value="Thanh toán" style="rounded=1;whiteSpace=wrap;html=1;arcSize=40;fontColor=#000000;fillColor=#ffffc0;strokeColor=#ff0000;" parent="kXjG0Q7y1UOLb-YYbGv2-71" vertex="1">
          <mxGeometry x="49.999999999999545" y="610" width="120" height="40" as="geometry" />
        </mxCell>
        <mxCell id="kXjG0Q7y1UOLb-YYbGv2-82" value="System" style="swimlane;startSize=20;html=1;" parent="kXjG0Q7y1UOLb-YYbGv2-70" vertex="1">
          <mxGeometry x="220" y="20" width="390" height="920" as="geometry" />
        </mxCell>
        <mxCell id="kXjG0Q7y1UOLb-YYbGv2-83" value="Hiển thị danh sách" style="rounded=1;whiteSpace=wrap;html=1;arcSize=40;fontColor=#000000;fillColor=#ffffc0;strokeColor=#ff0000;" parent="kXjG0Q7y1UOLb-YYbGv2-82" vertex="1">
          <mxGeometry x="69.99999999999955" y="110" width="120" height="40" as="geometry" />
        </mxCell>
        <mxCell id="kXjG0Q7y1UOLb-YYbGv2-88" value="hiển thị thông tin phòng" style="rounded=1;whiteSpace=wrap;html=1;arcSize=40;fontColor=#000000;fillColor=#ffffc0;strokeColor=#ff0000;" parent="kXjG0Q7y1UOLb-YYbGv2-82" vertex="1">
          <mxGeometry x="69.99999999999955" y="270" width="120" height="40" as="geometry" />
        </mxCell>
        <mxCell id="kXjG0Q7y1UOLb-YYbGv2-90" value="Hiển thị thông tin yêu cầu" style="rounded=1;whiteSpace=wrap;html=1;arcSize=40;fontColor=#000000;fillColor=#ffffc0;strokeColor=#ff0000;" parent="kXjG0Q7y1UOLb-YYbGv2-82" vertex="1">
          <mxGeometry x="134.99999999999955" y="510" width="120" height="40" as="geometry" />
        </mxCell>
        <mxCell id="kXjG0Q7y1UOLb-YYbGv2-113" value="ghi nhận" style="rounded=1;whiteSpace=wrap;html=1;arcSize=40;fontColor=#000000;fillColor=#ffffc0;strokeColor=#ff0000;" parent="kXjG0Q7y1UOLb-YYbGv2-82" vertex="1">
          <mxGeometry x="69.99999999999955" y="190" width="120" height="40" as="geometry" />
        </mxCell>
        <mxCell id="kXjG0Q7y1UOLb-YYbGv2-122" style="edgeStyle=orthogonalEdgeStyle;rounded=0;orthogonalLoop=1;jettySize=auto;html=1;exitX=1;exitY=0.5;exitDx=0;exitDy=0;entryX=0;entryY=0.5;entryDx=0;entryDy=0;" parent="kXjG0Q7y1UOLb-YYbGv2-82" source="kXjG0Q7y1UOLb-YYbGv2-119" target="kXjG0Q7y1UOLb-YYbGv2-121" edge="1">
          <mxGeometry relative="1" as="geometry" />
        </mxCell>
        <mxCell id="kXjG0Q7y1UOLb-YYbGv2-119" value="ghi nhận yc đặt phòng" style="rounded=1;whiteSpace=wrap;html=1;arcSize=40;fontColor=#000000;fillColor=#ffffc0;strokeColor=#ff0000;" parent="kXjG0Q7y1UOLb-YYbGv2-82" vertex="1">
          <mxGeometry x="69.99999999999955" y="430" width="120" height="40" as="geometry" />
        </mxCell>
        <mxCell id="kXjG0Q7y1UOLb-YYbGv2-121" value="send notice" style="rounded=1;whiteSpace=wrap;html=1;arcSize=40;fontColor=#000000;fillColor=#ffffc0;strokeColor=#ff0000;" parent="kXjG0Q7y1UOLb-YYbGv2-82" vertex="1">
          <mxGeometry x="219.99999999999955" y="430" width="120" height="40" as="geometry" />
        </mxCell>
        <mxCell id="kXjG0Q7y1UOLb-YYbGv2-133" value="Gửi thông báo tới người dùng" style="rounded=1;whiteSpace=wrap;html=1;arcSize=40;fontColor=#000000;fillColor=#ffffc0;strokeColor=#ff0000;" parent="kXjG0Q7y1UOLb-YYbGv2-82" vertex="1">
          <mxGeometry x="136.99999999999955" y="610" width="120" height="40" as="geometry" />
        </mxCell>
        <mxCell id="kXjG0Q7y1UOLb-YYbGv2-137" style="edgeStyle=orthogonalEdgeStyle;rounded=0;orthogonalLoop=1;jettySize=auto;html=1;curved=0;exitX=0;exitY=0;exitDx=0;exitDy=5;exitPerimeter=0;entryX=1;entryY=0.5;entryDx=0;entryDy=0;" parent="kXjG0Q7y1UOLb-YYbGv2-82" source="kXjG0Q7y1UOLb-YYbGv2-136" target="kXjG0Q7y1UOLb-YYbGv2-133" edge="1">
          <mxGeometry relative="1" as="geometry" />
        </mxCell>
        <mxCell id="kXjG0Q7y1UOLb-YYbGv2-139" style="edgeStyle=orthogonalEdgeStyle;rounded=0;orthogonalLoop=1;jettySize=auto;html=1;curved=0;exitX=0;exitY=1;exitDx=0;exitDy=-5;exitPerimeter=0;entryX=1;entryY=0.5;entryDx=0;entryDy=0;" parent="kXjG0Q7y1UOLb-YYbGv2-82" source="kXjG0Q7y1UOLb-YYbGv2-136" target="kXjG0Q7y1UOLb-YYbGv2-138" edge="1">
          <mxGeometry relative="1" as="geometry" />
        </mxCell>
        <mxCell id="kXjG0Q7y1UOLb-YYbGv2-136" value="" style="html=1;points=[[0,0,0,0,5],[0,1,0,0,-5],[1,0,0,0,5],[1,1,0,0,-5]];perimeter=orthogonalPerimeter;outlineConnect=0;targetShapes=umlLifeline;portConstraint=eastwest;newEdgeStyle={&quot;curved&quot;:0,&quot;rounded&quot;:0};" parent="kXjG0Q7y1UOLb-YYbGv2-82" vertex="1">
          <mxGeometry x="319.99999999999955" y="625" width="10" height="80" as="geometry" />
        </mxCell>
        <mxCell id="kXjG0Q7y1UOLb-YYbGv2-138" value="Update thông tin" style="rounded=1;whiteSpace=wrap;html=1;arcSize=40;fontColor=#000000;fillColor=#ffffc0;strokeColor=#ff0000;" parent="kXjG0Q7y1UOLb-YYbGv2-82" vertex="1">
          <mxGeometry x="136.99999999999955" y="681" width="120" height="40" as="geometry" />
        </mxCell>
        <mxCell id="kXjG0Q7y1UOLb-YYbGv2-91" value="" style="ellipse;html=1;shape=endState;fillColor=#000000;strokeColor=#ff0000;" parent="kXjG0Q7y1UOLb-YYbGv2-82" vertex="1">
          <mxGeometry x="181.99999999999955" y="759" width="30" height="30" as="geometry" />
        </mxCell>
        <mxCell id="kXjG0Q7y1UOLb-YYbGv2-98" value="Manager" style="swimlane;startSize=20;html=1;" parent="kXjG0Q7y1UOLb-YYbGv2-70" vertex="1">
          <mxGeometry x="610" y="20" width="390" height="920" as="geometry" />
        </mxCell>
        <mxCell id="kXjG0Q7y1UOLb-YYbGv2-99" value="Nhận thông báo" style="rounded=1;whiteSpace=wrap;html=1;arcSize=40;fontColor=#000000;fillColor=#ffffc0;strokeColor=#ff0000;" parent="kXjG0Q7y1UOLb-YYbGv2-98" vertex="1">
          <mxGeometry x="69.99999999999955" y="70" width="120" height="40" as="geometry" />
        </mxCell>
        <mxCell id="kXjG0Q7y1UOLb-YYbGv2-124" value="Chức năng đặt phòng" style="rounded=1;whiteSpace=wrap;html=1;arcSize=40;fontColor=#000000;fillColor=#ffffc0;strokeColor=#ff0000;" parent="kXjG0Q7y1UOLb-YYbGv2-98" vertex="1">
          <mxGeometry x="69.99999999999955" y="150" width="120" height="40" as="geometry" />
        </mxCell>
        <mxCell id="kXjG0Q7y1UOLb-YYbGv2-127" value="Kiểm tra thông tin" style="rounded=1;whiteSpace=wrap;html=1;arcSize=40;fontColor=#000000;fillColor=#ffffc0;strokeColor=#ff0000;" parent="kXjG0Q7y1UOLb-YYbGv2-98" vertex="1">
          <mxGeometry x="69.99999999999955" y="230" width="120" height="40" as="geometry" />
        </mxCell>
        <mxCell id="kXjG0Q7y1UOLb-YYbGv2-129" value="phê duyệt" style="rhombus;whiteSpace=wrap;html=1;fontColor=#000000;fillColor=#ffffc0;strokeColor=#ff0000;" parent="kXjG0Q7y1UOLb-YYbGv2-98" vertex="1">
          <mxGeometry x="89.99999999999955" y="310" width="80" height="40" as="geometry" />
        </mxCell>
        <mxCell id="kXjG0Q7y1UOLb-YYbGv2-130" value="yes" style="edgeStyle=orthogonalEdgeStyle;html=1;align=left;verticalAlign=bottom;endArrow=open;endSize=8;strokeColor=#ff0000;rounded=0;entryX=0.5;entryY=0;entryDx=0;entryDy=0;" parent="kXjG0Q7y1UOLb-YYbGv2-98" source="kXjG0Q7y1UOLb-YYbGv2-129" target="kXjG0Q7y1UOLb-YYbGv2-132" edge="1">
          <mxGeometry x="-1" relative="1" as="geometry">
            <mxPoint x="269.99999999999955" y="330" as="targetPoint" />
          </mxGeometry>
        </mxCell>
        <mxCell id="kXjG0Q7y1UOLb-YYbGv2-131" value="no" style="edgeStyle=orthogonalEdgeStyle;html=1;align=left;verticalAlign=top;endArrow=open;endSize=8;strokeColor=#ff0000;rounded=0;" parent="kXjG0Q7y1UOLb-YYbGv2-98" source="kXjG0Q7y1UOLb-YYbGv2-129" edge="1">
          <mxGeometry x="-1" relative="1" as="geometry">
            <mxPoint x="129.99999999999955" y="410" as="targetPoint" />
          </mxGeometry>
        </mxCell>
        <mxCell id="kXjG0Q7y1UOLb-YYbGv2-132" value="Xác nhận" style="rounded=1;whiteSpace=wrap;html=1;arcSize=40;fontColor=#000000;fillColor=#ffffc0;strokeColor=#ff0000;" parent="kXjG0Q7y1UOLb-YYbGv2-98" vertex="1">
          <mxGeometry x="199.99999999999955" y="370" width="120" height="40" as="geometry" />
        </mxCell>
        <mxCell id="kXjG0Q7y1UOLb-YYbGv2-111" style="edgeStyle=orthogonalEdgeStyle;rounded=0;orthogonalLoop=1;jettySize=auto;html=1;exitX=1;exitY=0.5;exitDx=0;exitDy=0;entryX=0;entryY=0.5;entryDx=0;entryDy=0;" parent="kXjG0Q7y1UOLb-YYbGv2-70" source="kXjG0Q7y1UOLb-YYbGv2-75" target="kXjG0Q7y1UOLb-YYbGv2-83" edge="1">
          <mxGeometry relative="1" as="geometry" />
        </mxCell>
        <mxCell id="kXjG0Q7y1UOLb-YYbGv2-112" style="edgeStyle=orthogonalEdgeStyle;rounded=0;orthogonalLoop=1;jettySize=auto;html=1;exitX=0.5;exitY=1;exitDx=0;exitDy=0;entryX=0.5;entryY=0;entryDx=0;entryDy=0;" parent="kXjG0Q7y1UOLb-YYbGv2-70" source="kXjG0Q7y1UOLb-YYbGv2-83" target="kXjG0Q7y1UOLb-YYbGv2-76" edge="1">
          <mxGeometry relative="1" as="geometry" />
        </mxCell>
        <mxCell id="kXjG0Q7y1UOLb-YYbGv2-114" style="edgeStyle=orthogonalEdgeStyle;rounded=0;orthogonalLoop=1;jettySize=auto;html=1;exitX=1;exitY=0.5;exitDx=0;exitDy=0;" parent="kXjG0Q7y1UOLb-YYbGv2-70" source="kXjG0Q7y1UOLb-YYbGv2-76" target="kXjG0Q7y1UOLb-YYbGv2-113" edge="1">
          <mxGeometry relative="1" as="geometry" />
        </mxCell>
        <mxCell id="kXjG0Q7y1UOLb-YYbGv2-115" style="edgeStyle=orthogonalEdgeStyle;rounded=0;orthogonalLoop=1;jettySize=auto;html=1;exitX=0.5;exitY=1;exitDx=0;exitDy=0;" parent="kXjG0Q7y1UOLb-YYbGv2-70" source="kXjG0Q7y1UOLb-YYbGv2-113" target="kXjG0Q7y1UOLb-YYbGv2-78" edge="1">
          <mxGeometry relative="1" as="geometry" />
        </mxCell>
        <mxCell id="kXjG0Q7y1UOLb-YYbGv2-116" style="edgeStyle=orthogonalEdgeStyle;rounded=0;orthogonalLoop=1;jettySize=auto;html=1;exitX=1;exitY=0.5;exitDx=0;exitDy=0;" parent="kXjG0Q7y1UOLb-YYbGv2-70" source="kXjG0Q7y1UOLb-YYbGv2-78" target="kXjG0Q7y1UOLb-YYbGv2-88" edge="1">
          <mxGeometry relative="1" as="geometry" />
        </mxCell>
        <mxCell id="kXjG0Q7y1UOLb-YYbGv2-117" style="edgeStyle=orthogonalEdgeStyle;rounded=0;orthogonalLoop=1;jettySize=auto;html=1;exitX=0.5;exitY=1;exitDx=0;exitDy=0;" parent="kXjG0Q7y1UOLb-YYbGv2-70" source="kXjG0Q7y1UOLb-YYbGv2-88" target="kXjG0Q7y1UOLb-YYbGv2-80" edge="1">
          <mxGeometry relative="1" as="geometry" />
        </mxCell>
        <mxCell id="kXjG0Q7y1UOLb-YYbGv2-120" style="edgeStyle=orthogonalEdgeStyle;rounded=0;orthogonalLoop=1;jettySize=auto;html=1;exitX=1;exitY=0.5;exitDx=0;exitDy=0;entryX=0;entryY=0.5;entryDx=0;entryDy=0;" parent="kXjG0Q7y1UOLb-YYbGv2-70" source="kXjG0Q7y1UOLb-YYbGv2-92" target="kXjG0Q7y1UOLb-YYbGv2-119" edge="1">
          <mxGeometry relative="1" as="geometry" />
        </mxCell>
        <mxCell id="kXjG0Q7y1UOLb-YYbGv2-123" style="edgeStyle=orthogonalEdgeStyle;rounded=0;orthogonalLoop=1;jettySize=auto;html=1;exitX=1;exitY=0.5;exitDx=0;exitDy=0;entryX=0;entryY=0.5;entryDx=0;entryDy=0;" parent="kXjG0Q7y1UOLb-YYbGv2-70" source="kXjG0Q7y1UOLb-YYbGv2-121" target="kXjG0Q7y1UOLb-YYbGv2-99" edge="1">
          <mxGeometry relative="1" as="geometry" />
        </mxCell>
        <mxCell id="kXjG0Q7y1UOLb-YYbGv2-126" style="edgeStyle=orthogonalEdgeStyle;rounded=0;orthogonalLoop=1;jettySize=auto;html=1;exitX=0;exitY=0.5;exitDx=0;exitDy=0;entryX=1;entryY=0.5;entryDx=0;entryDy=0;" parent="kXjG0Q7y1UOLb-YYbGv2-70" source="kXjG0Q7y1UOLb-YYbGv2-124" target="kXjG0Q7y1UOLb-YYbGv2-90" edge="1">
          <mxGeometry relative="1" as="geometry">
            <Array as="points">
              <mxPoint x="640" y="190" />
              <mxPoint x="640" y="550" />
            </Array>
          </mxGeometry>
        </mxCell>
        <mxCell id="kXjG0Q7y1UOLb-YYbGv2-128" style="edgeStyle=orthogonalEdgeStyle;rounded=0;orthogonalLoop=1;jettySize=auto;html=1;exitX=0.5;exitY=1;exitDx=0;exitDy=0;entryX=0;entryY=0.5;entryDx=0;entryDy=0;" parent="kXjG0Q7y1UOLb-YYbGv2-70" source="kXjG0Q7y1UOLb-YYbGv2-90" target="kXjG0Q7y1UOLb-YYbGv2-127" edge="1">
          <mxGeometry relative="1" as="geometry">
            <Array as="points">
              <mxPoint x="415" y="590" />
              <mxPoint x="660" y="590" />
              <mxPoint x="660" y="270" />
            </Array>
          </mxGeometry>
        </mxCell>
        <mxCell id="kXjG0Q7y1UOLb-YYbGv2-135" style="edgeStyle=orthogonalEdgeStyle;rounded=0;orthogonalLoop=1;jettySize=auto;html=1;exitX=0;exitY=0.5;exitDx=0;exitDy=0;entryX=1;entryY=0.5;entryDx=0;entryDy=0;" parent="kXjG0Q7y1UOLb-YYbGv2-70" source="kXjG0Q7y1UOLb-YYbGv2-133" target="kXjG0Q7y1UOLb-YYbGv2-134" edge="1">
          <mxGeometry relative="1" as="geometry" />
        </mxCell>
        <mxCell id="kXjG0Q7y1UOLb-YYbGv2-140" style="edgeStyle=orthogonalEdgeStyle;rounded=0;orthogonalLoop=1;jettySize=auto;html=1;exitX=0.5;exitY=1;exitDx=0;exitDy=0;" parent="kXjG0Q7y1UOLb-YYbGv2-70" source="kXjG0Q7y1UOLb-YYbGv2-132" target="kXjG0Q7y1UOLb-YYbGv2-136" edge="1">
          <mxGeometry relative="1" as="geometry" />
        </mxCell>
      </root>
    </mxGraphModel>
  </diagram>
</mxfile>
